# xmcd CD database file generated by Grip 3.0.7
# 
# Track frame offsets:
#       150
#       15152
#       28710
#       42661
#       57377
#       72605
#       85487
#       97650
#       110616
#       121812
#       135088
#       148956
#       160676
#       174560
#       188706
#       201654
#       215320
#       228486
#       242763
#       257735
#       271392
# 
# Disc length: 3794 seconds
# 
# Revision: 1
# Processed by: cddbd v1.5.1PL0 Copyright (c) Steve Scherf et al.
# Submitted via: Grip 3.0.7
# 
DISCID=2e0ed015
DTITLE=Louis Armstrong - The Complete Decca Studio Master Takes 1940-1949  (D
DTITLE=isc 1)
DYEAR=2000
DGENRE=Blues
TTITLE0=Hep Cats' Ball
TTITLE1=You've Got Me Voodoo'd
TTITLE2=Harlem Stomp
TTITLE3=Wolverine Blues
TTITLE4=Lazy 'Sippi Steamer
TTITLE5=W.P.A.
TTITLE6=Boog It
TTITLE7=Cherry
TTITLE8=Marie
TTITLE9=Sweethearts On Parade
TTITLE10=You Run Your Mouth, I'll Run My Business
TTITLE11=Cut Off My Legs And Call Me Shorty
TTITLE12=Cain And Abel
TTITLE13=Perdido Street Blues
TTITLE14=2.19 Blues
TTITLE15=Down In Honky Tonk Town
TTITLE16=Coal Cart Blues
TTITLE17=Ev'rything's Been Done Before
TTITLE18=I Cover The Waterfront
TTITLE19=In The Gloaming
TTITLE20=Long, Long Ago
EXTD=
EXTT0=
EXTT1=
EXTT2=
EXTT3=
EXTT4=
EXTT5=
EXTT6=
EXTT7=
EXTT8=
EXTT9=
EXTT10=
EXTT11=
EXTT12=
EXTT13=
EXTT14=
EXTT15=
EXTT16=
EXTT17=
EXTT18=
EXTT19=
EXTT20=
PLAYORDER=
